<svg xmlns="http://www.w3.org/2000/svg" width="224" height="150" viewBox="0 0 224 150">
    <g fill="none" fill-rule="evenodd">
        <g fill="#FFF">
            <g>
                <g>
                    <path d="M182.314 52.349c.29.641.73 1.246 1.606 1.963.876.72 1.168 2.002.73 3.74-.438 1.737-.036 3.285-.036 3.285.511.718 1.789 2.077 3.03 4.645.084.174.155.36.216.556.83 2.695-.473 7.224-.473 7.224-.801 3.4-.363 3.74-.363 3.74 1.24 0 2.519-.983 2.519-.983.95-.792 3.869-1.056 4.673-1.548.803-.49 1.606-2.078 1.606-2.078.474-.982 1.497-.453 2.009.038.51.49.875.831 1.386 1.02.513.19.731.756.513 1.284-.22.528-.55 2.605-.55 2.605.037 1.927 2.046 1.285 3.105 1.36.449.032 1.522-.064 2.609-.187l.465-.053c1.31-.155 2.51-.325 2.51-.325-.202-3.739 1.69-4.86 1.974-5.006l.036-.018 2.554 2.606c.036.642-.656 2.114-.656 2.114l.04-.004c.172-.018.851-.096 1.42-.26.297-.084.41-.122.45-.14l1.34 1.235.003.005.016.032c.042.099.099.377-.494.53-.732.189-1.935.491-1.935.491-1.022.189-.401.831-.148 1.058.258.227 1.17.454 2.594.717 1.424.264 1.642-.263 1.642-.263s.805.527 1.68.83c.877.302 1.68.075 1.68.075s-1.35 1.247-1.9 1.285c-.547.037-2.152.453-3.138.454-.985 0-1.644-.266-2.264-.606-.62-.34-1.388-.792-2.118-1.094-.73-.303-1.752-1.436-2.3-1.625-.546-.187-1.497.529-2.995.83-1.496.304-4.927-.113-5.403-.413-.473-.304-.948-.454-1.825-.682-.877-.226-1.24-.604-1.863-1.207-.62-.605-1.13-1.739-1.13-1.739s-.293-.036-.402.19c-.11.226-4.381 2.077-4.381 2.077-1.133.642-2.848.605-3.213.341-.365-.266-.547-.832-1.9-1.058-1.35-.228-1.97-1.813-1.97-1.813-.767-2.04.839-6.345 1.276-7.516.438-1.17.22-4.004.148-4.494-.073-.492-.22-.83-.365-.492-.146.34-.584 1.7-.622 3.022-.019.7-.509 2.68-1.052 4.748l-.183.691c-.428 1.612-.86 3.196-1.1 4.191-.584 2.418-2.301 5.93-2.301 5.93s-1.169-.226-2.081-.793c-.376-.233-.628-.396-.794-.507l-.122-.083c-.138-.094-.178-.128-.178-.128-.842.076-3.945.49-5.59-.037-1.64-.53-3.358-1.245-3.358-1.245s-1.313 1.547-2.08 2.867c-.767 1.322-2.373 1.36-3.067 1.06-.693-.303-.875-.49-1.424-.756-.547-.265-1.023-.037-1.752-1.17-.73-1.133.037-5.325.037-5.325s-.767.603-1.79 1.32c-1.021.719-2.482 2.04-4.782 3.966-1.962 1.643-3.898 3.532-4.426 4.052l-.088.088-.028.028-.024.023s.11 1.814.66 5.552c.547 3.738 1.935 8.234 1.935 8.234.51 3.814-1.735 4.985-2.831 6.06-1.095 1.078-3.614 2.437-6.079 2.946-.936.195-1.215.364-1.491.472l-.088.032c-.43.143-1.011.133-4.062-.162-5.257-.51-5.803-2.492-5.803-2.492-2.192-2.89.328-6.912 1.422-8.554.524-.786 2.213-2.79 3.917-4.742l.464-.53c1.697-1.932 3.304-3.695 3.67-4.019.766-.68 1.314-.17 1.916-.738.259-.242.8-.839 1.332-1.441l.264-.3c.61-.694 1.144-1.317 1.144-1.317-.22-.794-.494-3.91-.494-3.91s-.656-.169-2.354.397c-1.698.567-5.039.284-5.478 0-.437-.283-1.97-1.076-1.97-1.076-1.644-1.133-1.37-2.832-1.37-2.832.712-1.644 5.148-5.043 6.079-5.609.931-.565 1.533-.565 2.245-.34.712.227 2.356 1.87 2.356 1.87l.096-.17v-.091c.005-.18.024-.572.121-.9.124-.41.508-.468.741-.496.233-.029.643.34.806.553.166.21 1.07 1.018 1.07 1.018.739.594.907 1.067.907 1.067.51 1.813.695 6.044.695 6.044.949.528 3.469-.642 3.469-.642 1.166-.857 4.967-4.04 6.146-5.03l.168-.14.185-.156c.803-.717 2.554-2.418 2.554-2.418l1.168-2.416c.694-1.209 1.57-.718 1.936-.415.366.3 2.117 1.623 2.117 1.623s-.619 1.171-.802 1.473c-.184.302-1.134 2.795-1.607 3.852-.475 1.057-.402 2.116-.367 2.57.039.452.586-.077.732-.34.145-.266.731-1.474 1.094-2.116.086-.152.189-.334.294-.525l.16-.289c.294-.531.569-1.037.569-1.037.511-.188 1.314 1.02 1.788 1.208.475.19 1.17.717 1.572 1.21.4.49.583 1.435 1.023 1.927.438.49 2.482.414 3.358.64.876.227 2.483.378 2.885.605.401.228.582.378.582.074 0-.3.293-2.453.44-3.134.144-.68 1.679-5.362 2.154-6.646.206-.559.757-2.266 1.315-4.018l.167-.526c.666-2.1 1.292-4.104 1.292-4.104.949-2.002-.146-3.74-.146-3.74-.42-.845-.692-2.016-.833-2.75l-.047-.252c-.048-.268-.07-.434-.07-.434-.035-2.229 1.681-3.248 1.681-3.248zm-37.963 36.926l-.026.025-.031.032-.1.098c-1.195 1.192-8.89 8.944-10 12.025 0 0-2.55 5.098-.576 6.26 0 0 2.574.65 5.97-.482 0 0 3.559-.37 6.079-4.276 0 0 .876-.992.356-4.59 0 0-1.423-7.138-1.672-9.092zM68.683 5.74c.183.004.282.018.282.018 3.41.212 3.724 3.422 3.724 3.422.07 1.696-1.04 3.972-1.629 5.174-.59 1.202-2.014 3.705-2.726 4.934-.713 1.23-1.973 3.394-2.712 4.468-.74 1.076-2.122 3.804-2.972 4.751-.85.948-2.589 3.944-3.014 4.708-.184.331-.679 1.185-1.181 2.046l-.231.397-1.094 1.869c-2.192 3.733-3.836 5.26-4.11 7.578-.017.14-.034.268-.054.387-.315 1.86-1.04 1.31-1.04 1.31-.955-.363-2.554-1.39-2.814-1.56l-.036-.023c.182-1.394 1.26-3.865 2.246-5.656.986-1.79 4.511-7.635 5.442-9.105.932-1.47 5.808-9.068 5.808-9.068 1.826-2.582 2.995-5.335 4.09-7.125 1.096-1.791 2.375-5.09 2.375-5.09.402-.98-.565-.585-.565-.585-1.005.264-2.887 1.621-4.841 3.242-1.954 1.622-4.566 4.976-6.3 7.258-1.735 2.28-4.219 5.825-5.352 7.447-1.132 1.621-4.053 7.127-4.748 9.256-.695 2.13-1.242 4.242-1.753 6.654-.511 2.414-.676 5.94-.804 9.012-.128 3.073 1.152 7.182 1.845 8.917.695 1.734 1.37 5.05 2.94 7.747 1.57 2.696 3.799 7.805 4.438 9.2.64 1.395 1.59 4.807 1.023 7.088-.566 2.282-1.48 4.448-4.273 6.749-2.796 2.3-5.68 3.676-8.365 4.412-2.685.734-9.04 2.187-11.834 2.62-.932.144-2.196.3-3.467.446l-.509.057c-2.366.265-4.608.476-4.608.476-2.825.505-7.729.614-8.168.622l-.032.001c-2.045.245-5.589-.227-5.589-.227-5.662-1-5.15-3.629-5.082-3.898l.005-.02c1.133-3.113 6.411-5.979 6.813-6.204.4-.227-.548.583-.603 1.3-.042.538.719-.092 1.448-.71l.207-.176c.17-.144.334-.281.481-.396.823-.641 1.717-.716 2.046-.98.329-.265.347-.094.458.02.108.112-.037.471.383.206.419-.263.493-.095.583.075.091.17-.675.886-1.203 1.452-.531.566-.896 1 .035.396.93-.604 2.301-.697 2.301-.697-3.289 1.343-6.605 4.484-7.287 5.151l-.081.08-.026.025-.02.021c-1.17 1.301.035 1.472.035 1.472.898.127 2.486.109 4.12.036l.546-.026.544-.03c2.345-.133 4.488-.338 4.488-.338 1.05-.122 2.604-.331 4.25-.562l.585-.082.588-.083c3.334-.473 6.649-.97 6.649-.97.65-.124 1.313-.264 1.973-.414l.564-.13c3.753-.878 7.234-1.983 7.234-1.983 4.292-.98 7.25-3.354 7.25-3.354 2.959-2.281 3.67-5.448 3.67-5.448.561-1.354.07-3.571-.142-4.379l-.045-.165-.04-.141c-.11-1.498-3.206-7.55-3.206-7.55-.212-.45-.602-1.255-1.018-2.109l-.314-.644c-.664-1.36-1.297-2.649-1.297-2.649-2.082-4.157-3.821-11.126-3.821-11.126-.292-1.787-.328-5.168-.33-6.512v-.339V47.453c.075-.73.204-1.68.349-2.655l.11-.731c.313-2.027.65-3.938.65-3.938.188-.819.51-1.921.861-3.043l.153-.482c.716-2.245 1.492-4.421 1.492-4.421 2.44-5.783 5.233-8.978 5.233-8.978.74-.976 5.74-7.324 5.74-7.324 2.328-3.238 6.26-6.701 6.26-6.701 3.174-3.077 5.882-3.43 6.885-3.44zm71.26 70.674l-.047.032c-.448.304-3.923 2.68-3.923 3.397 0 .765.382.339 1.068.283.685-.056 2.738-.623 3.504-.707.768-.087 1.588-.71 1.973-.71.383 0 .6.963.738-.055.137-1.02.275-1.247.137-1.672-.136-.424-.275-.737-.52-.424-.246.31-.41 1.02-.685.961-.273-.057-.63-.68-1.067-.792-.438-.114-1.178-.313-1.178-.313zm-73.092 38.647c5.193 0 8.301 1.797 10.858 4.41l-2.632 3.152c-1.915-2.22-4.687-3.627-7.783-3.627-5.77 0-10.45 4.858-10.45 10.85s4.68 10.848 10.45 10.848c3.221 0 6.098-1.513 8.016-3.891l2.595 2.722c-2.832 3.145-5.98 5.106-11.29 5.106-8.102 0-14.122-6.495-14.122-14.704v-.081c0-8.129 5.9-14.785 14.358-14.785zm-34.378 4.738l4.318 6.747 4.347-6.747h5.14l-6.874 10.165 7.167 10.64h-5.286l-4.61-7.133-4.641 7.133h-5.14l7.166-10.581-6.872-10.224h5.285zm60.369 0v16.644h10.467v4.161H88.223v-20.805h4.619zm22.892-1.007v12.148c0 3.498 1.685 5.308 4.466 5.308 2.779 0 4.465-1.75 4.465-5.154v-12.302h4.553v12.118c0 6.504-3.518 9.694-9.078 9.694s-8.96-3.22-8.96-9.541v-12.271h4.554zm29.603 0c2.958 0 5.482.97 7.54 2.696l-2.32 3.514c-1.798-1.303-3.567-2.09-5.28-2.09-1.71 0-2.61.818-2.61 1.848v.06c0 1.393.871 1.847 4.382 2.787 4.119 1.121 6.439 2.665 6.439 6.362v.062c0 4.21-3.076 6.573-7.455 6.573-3.076 0-6.178-1.121-8.616-3.393l2.64-3.302c1.828 1.575 3.742 2.574 6.063 2.574 1.827 0 2.93-.758 2.93-2v-.059c0-1.182-.696-1.787-4.092-2.697-4.089-1.09-6.729-2.272-6.729-6.483v-.06c0-3.847 2.96-6.392 7.108-6.392zm23.237 1.007v20.805h-4.264v-20.805h4.264zm12.796 0l5.3 14.55 5.3-14.55h4.809l-8.197 20.805h-3.94l-8.197-20.805h4.925zm38.875 0v4.07h-11.076v4.222h9.747v4.072h-9.747v4.369h11.223v4.072H204.65v-20.805h15.595zm-201.37 0v4.07H7.797v4.222h9.747v4.072H7.798v4.369h11.224v4.072H3.28v-20.805h15.594zm45.473 4.912l8.84 5.3-8.84 5.3v-10.6zM104.26 32.52s.747-1.458 1.868-.809c0 0 .747 1.07 1.059 1.103.31.032.622.097.622.227s.498 6.232-.405 10.905c0 0-1.303 4.94-2.724 10.162l-.285 1.047c-.986 3.61-1.99 7.207-2.626 9.27 0 0-1.835 4.315-2.178 6.232 0 0-.996 2.954-.591 5.453l.01.049.027.14c.2 1.002 1.18 5.672 2.235 6.366 0 0 .044.032.125.075l.094.047c.515.239 1.882.603 3.516-1.127 0 0 4.14-3.57 7.345-9.478 0 0 .997-1.688 1.338-2.174.343-.488.592-.098.592-.098l.015-.032c.256-.534 3.658-7.665 4.466-10.289.354-1.147 1-3.175 1.677-5.272l.255-.788c.594-1.839 1.187-3.653 1.601-4.898l.166-.497c.103-.306.19-.56.255-.747.623-1.787 2.146-6.103 2.957-7.433.81-1.331 1.43-3.116 1.804-3.96.373-.842 1.65-2.369 2.895-1.103 0 0 .006 0 .016.004l.045.015c.293.116 1.467.868-.185 5.175 0 0-5.386 12.364-6.724 16.487-1.339 4.12-4.139 12.007-5.009 14.734-.872 2.725-2.46 7.919-2.833 8.892-.374.974-.56 1.752.404 1.006 0 0 2.054-2.108 2.895-3.374.84-1.267 1.649-2.142 1.71-2.5.064-.357.998-.357 1.558.228.56.584 1.09.973 1.71 1.363.624.388 1.402 1.233 1.962 1.947.562.713 1.993 1.817 3.363 2.109 1.367.293 3.703 1.656 5.509 2.466h-.098c-.877-.005-7.487-.165-11.636-3.795 0 0-1.884 1.78-3.06 2.947l-.258.258c-.121.122-.23.234-.324.331-.966 1.007-1.805 1.85-1.992 2.044-.187.197-1.028 1.3-2.957.39 0 0-1.526-.778-1.962-.81-.436-.034-1.183-1.006-.963-2.727.216-1.72.248-2.207.84-3.473.59-1.266.778-2.335.778-2.466 0-.131.81-2.727.81-2.727s-1.333 2.507-2.887 5.041l-.294.475c-.888 1.422-1.824 2.803-2.61 3.702 0 0-3.827 4.9-8.247 1.493 0 0-1.494-1.624-1.837-2.726-.344-1.104-.964-2.434-1.494-3.117 0 0-1.277 4.415-3.922 7.531 0 0-.91 1.003-1.908 2.094l-.354.387c-.947 1.035-1.884 2.052-2.125 2.29-.53.517-1.142 1.092-2.136 1.362l-.61-.045s-2.135-.863-2.92-1.135c0 0-1.655-.683-1.22-4.453l.019-.063c.23-.771 2.6-8.445 6.735-12.025 0 0 1.133-.408 1.83-1.363.698-.955 1.264-1.226 1.961-.999.38.123.644.382.918.696l.282.328c.148.17.31.348.5.522.697.635 1.089 1.362 1.22 1.18.13-.183 1.132-1.272 1.132-2.227V71.25v-.719c-.004-1.896-.013-4.717-.043-6.528 0 0 .61-11.497 3.268-18.22 0 0 3.848-10.406 5.03-13.264zM93.557 75.817s-1.237-.081-1.805.267c0 0-2.657 2.017-4.665 6.21 0 0-1.404 2.928-1.972 4.993l-.064.249c-.427 1.705.023 1.314.498.867l.101-.096c.068-.064.135-.126.199-.18l.028-.024c.267-.23 2.375-2.063 3.581-3.497 1.287-1.532 2.681-3.844 3.197-5.053.515-1.21 1.158-2.528.902-3.736zM71.27 70.134c1.157.103 3.207 2.301 3.207 2.301-.065.542-.86 1.525-1.058 2.133-.172.528-.195 1.184-.198 1.35l-.001.038c.96.067 2.349 1.625 2.349 1.625-2.216 8.597 3.339 8.967 3.339 8.967l.132.644c-5.126.575-7.01-3.452-7.01-3.452-.185.203-.671.569-1.189.934l-.312.218c-.674.467-1.309.879-1.309.879-3.009 2.165-5.025.709-5.025.709-3.968-.981-3.505-3.18-3.505-3.18.827-4.602 3.835-7.277 5.753-8.8 1.918-1.523 4.827-4.366 4.827-4.366zm1.29 3.791c-1.19.881-4.068 2.878-6.117 5.245-2.05 2.371-2.281 5.348-2.281 5.348 3.603-.44 6.612-4.367 6.778-5.652.164-1.285.594-2.945.892-3.452.299-.508.729-1.489.729-1.489zm33.327-35.752c-5.297 7.999-6.731 25.032-6.731 25.032 1.298-2.971 2.493-6.824 3.504-10.611l.194-.732c1.847-7.064 3.033-13.69 3.033-13.69z" transform="translate(-130 -856) translate(79 807) translate(51 49)"/>
                </g>
            </g>
        </g>
    </g>
</svg>
